<?xml version="1.0" encoding="utf-8"?>
<!-- Generator: Adobe Illustrator 26.0.0, SVG Export Plug-In . SVG Version: 6.00 Build 0)  -->
<svg version="1.1" id="Layer_1" xmlns="http://www.w3.org/2000/svg" xmlns:xlink="http://www.w3.org/1999/xlink" x="0px" y="0px"
	 viewBox="0 0 3401.57 2267.72" style="enable-background:new 0 0 3401.57 2267.72;" xml:space="preserve">
<style type="text/css">
	.st0{fill:url(#SVGID_1_);}
	.st1{fill:#7D97F4;}
	.st2{fill:#FFFFFF;}
	.st3{fill:#BDD0FB;}
	.st4{fill:url(#SVGID_00000103241067950932426290000010641956635708509615_);}
	.st5{fill:#91B3FA;}
	.st6{opacity:0.5;fill:#3F67F9;}
	.st7{opacity:0.78;fill:#FFFFFF;}
	.st8{fill:url(#SVGID_00000027601206707853873020000000747998390471790781_);}
	.st9{fill:url(#SVGID_00000039831444388824772650000016457340704314943158_);}
	.st10{fill:url(#SVGID_00000016797646413050796080000006615556924545557928_);}
	.st11{fill:url(#SVGID_00000069363429473442544450000001442645646534369975_);}
	.st12{fill:url(#SVGID_00000028302820824320543350000013278364215660761738_);}
	.st13{fill:url(#SVGID_00000044177509062831102860000004915902019660069262_);}
	.st14{fill:url(#SVGID_00000065754084680861425930000011580548502581910661_);}
	.st15{fill:url(#SVGID_00000164512317281452579170000005025756443938983049_);}
	.st16{opacity:0.3;}
	.st17{fill:url(#SVGID_00000067217667594595761820000013736664055699071400_);}
	.st18{fill:url(#SVGID_00000094592383786304261510000007422511057028710024_);}
	.st19{fill:url(#SVGID_00000028307311133765894250000002963094193907081623_);}
	.st20{fill:url(#SVGID_00000029046989484833016710000012063242660456645565_);}
	.st21{fill:url(#SVGID_00000134213539267582656180000013225077087718713531_);}
	.st22{fill:url(#SVGID_00000104669135451063497620000001235898026740066185_);}
	.st23{opacity:0.7;fill:#FFFFFF;}
	.st24{fill:url(#SVGID_00000149342007453921636980000017910665675567869341_);}
	.st25{fill:url(#SVGID_00000173876919605265734570000009397336981308219567_);}
	.st26{fill:url(#SVGID_00000143600971877705839380000000681928947364289429_);}
	.st27{fill:url(#SVGID_00000053533715336774954940000005010539570112528027_);}
	.st28{fill:url(#SVGID_00000171716498233920216130000018026887124983432374_);}
	.st29{fill:url(#SVGID_00000176002734812534410330000009243429906178252223_);}
	.st30{fill:url(#SVGID_00000106142495207172298660000010316869600815092632_);}
	.st31{fill:url(#SVGID_00000057856855939646708770000007451174901225046924_);}
	.st32{fill:url(#SVGID_00000125598078560994201370000002982317948937258405_);}
	.st33{fill:url(#SVGID_00000006698824926066905880000012450062593997389703_);}
	.st34{fill:url(#SVGID_00000125584393990381893570000001823578392195526530_);}
	.st35{fill:url(#SVGID_00000010995995181456867000000010813404200934143104_);}
	.st36{fill:url(#SVGID_00000010272547435518222020000000788257056807302807_);}
	.st37{fill:url(#SVGID_00000150787247475156546290000002753086842457054358_);}
	.st38{fill:url(#SVGID_00000100359139261785607010000014037678148550667924_);}
	.st39{fill:url(#SVGID_00000100351062101718556520000011784802589109791626_);}
	.st40{fill:url(#SVGID_00000033340314008685139810000015827322999235678882_);}
	.st41{fill:url(#SVGID_00000142873164737465592910000002548665641623339395_);}
	.st42{fill:url(#SVGID_00000018953768839591408980000016352585658852403086_);}
	.st43{fill:url(#SVGID_00000132067496504654328780000014952545678731780993_);}
	.st44{fill:url(#SVGID_00000076571766784055212290000009340388863805074597_);}
	.st45{fill:url(#SVGID_00000144326999436959857620000006768806128359269812_);}
</style>
<g>
	<linearGradient id="SVGID_1_" gradientUnits="userSpaceOnUse" x1="2704.3342" y1="2234.3025" x2="1381.7026" y2="806.6999">
		<stop  offset="0" style="stop-color:#DAE3FE"/>
		<stop  offset="1" style="stop-color:#E9EFFD"/>
	</linearGradient>
	<path class="st0" d="M2520.9,1420.44c-181.94,424.39-662.2,606.67-1038.49,575.59c-102.74-8.49-309.46-25.56-470.87-177.89
		c-309.98-292.53-262.24-904.01,34.5-1264.01c38.21-46.36,302.72-356.98,714.91-352.82c301.78,3.04,513.6,173.17,539.35,194.36
		c32.54,26.77,104.3,90.4,168.98,191.33C2621.24,824.17,2634.59,1155.24,2520.9,1420.44z"/>
	<g>
		<path class="st1" d="M996.77,233.49c-3.23-11.4,10.25-20.18,19.48-12.74c93.75,75.48,322.72,305.45,303.15,739.37
			c-24.56,544.42,102.83,732.67,251.85,842.05c0,0-196.39-41.8-332.48-232.3C904.64,1102.16,1054.26,436.24,996.77,233.49z"/>
		<path class="st2" d="M1076.2,396.89c15.53,59.21,29.88,118.7,42.03,178.63c12.47,59.85,23.12,120.06,31.87,180.51
			c8.52,60.48,15.91,121.11,20.71,181.96c5.07,60.83,7.53,121.81,9.78,183.04c2.59,61.18,4.86,122.83,13.44,184.44
			c8.51,61.49,24.49,122.94,51.23,179.66c6.68,14.13,13.65,28.2,21.37,41.72c7.48,13.67,15.56,27,23.88,40.19
			c16.77,26.3,35.32,51.53,55.66,75.27c40.8,47.38,88.78,88.51,140.77,122.45c5.47,3.57,12.8,2.03,16.38-3.44
			c3.51-5.37,2.09-12.54-3.15-16.18l-0.04-0.03c-12.41-8.61-24.71-17.36-36.58-26.62c-6.01-4.54-11.8-9.33-17.68-14.02
			c-5.7-4.9-11.59-9.58-17.13-14.65c-22.5-19.9-43.57-41.37-62.95-64.28c-38.94-45.58-71.27-97.22-96.91-151.36
			c-12.52-27.22-23.01-55.32-31.3-84.12c-8.27-28.82-14.34-58.31-18.73-88.17c-8.79-59.76-11.54-120.76-14.57-181.92
			c-3.11-61.17-6.66-122.62-12.73-183.83c-2.95-30.61-6.45-61.16-10.5-91.63c-1.94-15.25-4.17-30.45-6.37-45.66
			c-2.35-15.19-4.78-30.36-7.34-45.51c-10.34-60.58-22.51-120.82-36.58-180.59c-14.35-59.7-30.28-119-48.47-177.59
			c-0.52-1.68-2.3-2.61-3.97-2.09C1076.71,393.56,1075.78,395.26,1076.2,396.89z"/>
	</g>
	<g>
		<g>
			<path class="st3" d="M1327.64,1888.37c-4.88,21.29-29.91,30.67-47.75,18.07c-98.42-69.53-358.92-291.27-386.93-706.32
				c-23.66-350.49-69.79-538.29-96.64-622.09c-5.68-17.72,14.57-32.39,29.66-21.51C992.48,676.63,1504.47,1117.03,1327.64,1888.37z"
				/>
			<path class="st2" d="M1298.31,1892.15c-0.41,0.35-0.86,0.67-1.35,0.94c-4.1,2.32-9.3,0.88-11.62-3.22
				c-2.63-4.65-263.6-470.12-318.51-955.96c-0.53-4.68,2.84-8.9,7.52-9.43c4.68-0.53,8.9,2.84,9.43,7.52
				c54.51,482.31,313.79,944.86,316.4,949.47C1302.22,1885.08,1301.35,1889.55,1298.31,1892.15z"/>
		</g>
	</g>
	<g>
		<g>
			
				<linearGradient id="SVGID_00000040537224611163224840000014651953639392669854_" gradientUnits="userSpaceOnUse" x1="2488.4077" y1="2546.2827" x2="2205.2488" y2="1910.2644">
				<stop  offset="0" style="stop-color:#09005D"/>
				<stop  offset="1" style="stop-color:#1A0F91"/>
			</linearGradient>
			<path style="fill:url(#SVGID_00000040537224611163224840000014651953639392669854_);" d="M1325.16,354.57
				c-6.73,271.53-28.56,1208.14-18.14,1540.04c1.1,35.16,29.29,63.38,64.45,64.54c173.91,5.69,674.19,20.12,958.64,8.18
				c59.25-2.49,106.36-50.48,107.59-109.76c5.91-285.01,18.95-1086.62-12.05-1453.84c-3.71-44-38.25-79.04-82.18-83.43
				c-189.39-18.95-692.42-65.26-938.17-49.31C1360.99,273.87,1326.26,310.17,1325.16,354.57z"/>
			<path class="st5" d="M1395.82,438.94c-9.5,222.38-39.46,962.19-29.95,1235.76c1.39,39.99,32.9,72.32,72.85,74.65
				c164.45,9.62,586.25,30.84,827.46,11.53c43.43-3.48,77.52-38.6,79.86-82.11c12.22-226.88,47.32-915.74,38.21-1186.24
				c-1.45-43.15-34.88-78.39-77.89-82.26c-177.91-15.97-634.84-53.98-839.81-42.8C1428.07,369.57,1397.46,400.44,1395.82,438.94z"/>
			<path class="st6" d="M1754.95,318.44L1754.95,318.44c0,8.33,6.49,15.2,14.81,15.64c41.08,2.15,156.79,8.24,208.5,11.24
				c10.2,0.59,18.2-8.57,16.27-18.6l-0.33-1.71c-1.32-6.84-6.99-11.99-13.93-12.63c-34.96-3.2-140.43-12.08-210.31-9.59
				C1761.55,303.08,1754.95,310.04,1754.95,318.44z"/>
		</g>
		<g>
			<g>
				<path class="st7" d="M2311.63,600.53l-7.66,97.73c-1.4,17.91-15.76,32.07-33.7,33.22l-56.69,3.63
					c-20.45,1.31-37.89-14.63-38.41-35.12l-2.7-105.15c-0.54-21.11,17.06-38.17,38.14-36.99l67.05,3.78
					C2297.89,562.8,2313.22,580.34,2311.63,600.53z"/>
				
					<linearGradient id="SVGID_00000013876996212044832020000017737763834968906893_" gradientUnits="userSpaceOnUse" x1="1473.6038" y1="595.0784" x2="2102.6201" y2="595.0784">
					<stop  offset="0" style="stop-color:#DAE3FE"/>
					<stop  offset="1" style="stop-color:#E9EFFD"/>
				</linearGradient>
				<path style="fill:url(#SVGID_00000013876996212044832020000017737763834968906893_);" d="M2080.98,574.64
					c-100.79-0.35-487.7-2.23-585.4-2.7c-12.32-0.06-22.27,9.46-21.97,21.02l0,0c0.28,11,9.79,19.79,21.52,19.9l585.09,5.36
					c11.27,0.1,20.8-7.86,21.98-18.38l0.3-2.66C2103.85,585.15,2093.87,574.69,2080.98,574.64z"/>
				
					<linearGradient id="SVGID_00000085210115006016743330000009972077628805096096_" gradientUnits="userSpaceOnUse" x1="1671.001" y1="688.4365" x2="2093.5891" y2="688.4365">
					<stop  offset="0" style="stop-color:#DAE3FE"/>
					<stop  offset="1" style="stop-color:#E9EFFD"/>
				</linearGradient>
				<path style="fill:url(#SVGID_00000085210115006016743330000009972077628805096096_);" d="M2090.6,702.98L2090.6,702.98
					c-1.64,2.73-4.72,4.43-8.06,4.45l-401.61,2.12c-5.04,0.03-9.17-3.73-9.3-8.46l-0.64-24.82c-0.13-4.93,4.14-8.99,9.4-8.94
					l390.56,3.67C2088.35,671.17,2099.15,688.74,2090.6,702.98z"/>
			</g>
			<g>
				<path class="st7" d="M2309.32,922.71l-7.66,97.73c-1.4,17.91-15.76,32.07-33.7,33.22l-56.69,3.63
					c-20.45,1.31-37.89-14.63-38.41-35.12l-2.7-105.15c-0.54-21.11,17.06-38.17,38.14-36.99l67.05,3.78
					C2295.57,884.97,2310.9,902.51,2309.32,922.71z"/>
				
					<linearGradient id="SVGID_00000016075976879221899930000011727497385454792580_" gradientUnits="userSpaceOnUse" x1="1469.7056" y1="913.0366" x2="2117.8879" y2="913.0366">
					<stop  offset="0" style="stop-color:#DAE3FE"/>
					<stop  offset="1" style="stop-color:#E9EFFD"/>
				</linearGradient>
				<path style="fill:url(#SVGID_00000016075976879221899930000011727497385454792580_);" d="M2095.6,892.37
					c-103.86-0.28-502.56-1.84-603.24-2.24c-12.7-0.05-22.95,9.48-22.65,21.03l0,0c0.28,11,10.07,19.78,22.16,19.88l602.92,4.9
					c11.61,0.09,21.44-7.88,22.66-18.4l0.31-2.66C2119.16,902.86,2108.89,892.4,2095.6,892.37z"/>
				
					<linearGradient id="SVGID_00000096051083977732512920000010069197177814984638_" gradientUnits="userSpaceOnUse" x1="1673.0525" y1="1006.4805" x2="2108.5054" y2="1006.4805">
					<stop  offset="0" style="stop-color:#DAE3FE"/>
					<stop  offset="1" style="stop-color:#E9EFFD"/>
				</linearGradient>
				<path style="fill:url(#SVGID_00000096051083977732512920000010069197177814984638_);" d="M2105.42,1020.7L2105.42,1020.7
					c-1.69,2.73-4.87,4.44-8.31,4.46l-413.85,2.43c-5.2,0.03-9.45-3.73-9.57-8.46l-0.64-24.82c-0.13-4.93,4.27-8.99,9.69-8.95
					l402.45,3.37C2103.13,988.89,2114.24,1006.46,2105.42,1020.7z"/>
			</g>
			<g>
				<path class="st7" d="M2285.39,1257.78l-7.66,97.73c-1.4,17.91-15.76,32.07-33.7,33.22l-56.69,3.63
					c-20.45,1.31-37.89-14.63-38.41-35.12l-2.7-105.15c-0.54-21.11,17.06-38.17,38.14-36.99l67.05,3.78
					C2271.64,1220.05,2286.97,1237.59,2285.39,1257.78z"/>
				
					<linearGradient id="SVGID_00000044145618989702161670000009849670091739478441_" gradientUnits="userSpaceOnUse" x1="1461.1589" y1="1241.87" x2="2074.5554" y2="1241.87">
					<stop  offset="0" style="stop-color:#DAE3FE"/>
					<stop  offset="1" style="stop-color:#E9EFFD"/>
				</linearGradient>
				<path style="fill:url(#SVGID_00000044145618989702161670000009849670091739478441_);" d="M2053.44,1221.62
					c-98.29-0.42-475.59-2.54-570.86-3.07c-12.02-0.07-21.71,9.45-21.41,21l0,0c0.28,11,9.56,19.8,21,19.91l570.57,5.73
					c10.99,0.11,20.28-7.85,21.42-18.37l0.29-2.66C2075.75,1232.14,2066.01,1221.67,2053.44,1221.62z"/>
				
					<linearGradient id="SVGID_00000011734028119996337050000004196816496845710209_" gradientUnits="userSpaceOnUse" x1="1653.707" y1="1335.1581" x2="2065.8108" y2="1335.1581">
					<stop  offset="0" style="stop-color:#DAE3FE"/>
					<stop  offset="1" style="stop-color:#E9EFFD"/>
				</linearGradient>
				<path style="fill:url(#SVGID_00000011734028119996337050000004196816496845710209_);" d="M2062.9,1349.96L2062.9,1349.96
					c-1.6,2.73-4.6,4.43-7.86,4.45l-391.63,1.86c-4.92,0.02-8.95-3.74-9.07-8.47l-0.64-24.82c-0.13-4.93,4.03-8.99,9.16-8.93
					l380.86,3.92C2060.69,1318.15,2071.23,1335.73,2062.9,1349.96z"/>
			</g>
			
				<linearGradient id="SVGID_00000139983769588545866560000002302543215265204373_" gradientUnits="userSpaceOnUse" x1="8331.0068" y1="804.3508" x2="8571.166" y2="484.1377" gradientTransform="matrix(-0.9997 0.0256 0.0256 0.9997 10763.7949 -137.8244)">
				<stop  offset="0" style="stop-color:#E1473D"/>
				<stop  offset="1" style="stop-color:#E9605A"/>
			</linearGradient>
			<path style="fill:url(#SVGID_00000139983769588545866560000002302543215265204373_);" d="M2313.54,596.01l-64.77,105.32
				c-7.91,12.85-27.18,10.8-32.2-3.43l-56.82-161.18c-3.55-10.08,2.44-21.01,12.85-23.44l11.38-2.65
				c9.41-2.19,18.86,3.47,21.38,12.79l23.89,88.4c4.24,15.68,25.47,18.11,33.14,3.78l20.04-37.46c4.66-8.71,15.49-12.02,24.23-7.38
				l0,0C2315.82,575.61,2318.97,587.18,2313.54,596.01z"/>
			<g>
				
					<linearGradient id="SVGID_00000055690243596734919980000003465869971022677155_" gradientUnits="userSpaceOnUse" x1="1795.1597" y1="-218.3808" x2="1856.468" y2="1866.0853">
					<stop  offset="0" style="stop-color:#E1473D"/>
					<stop  offset="1" style="stop-color:#E9605A"/>
				</linearGradient>
				<path style="fill:url(#SVGID_00000055690243596734919980000003465869971022677155_);" d="M2070.33,1701.84h-442.59
					c-8.01,0-14.5-6.49-14.5-14.5v-147.77c0-8.01,6.49-14.5,14.5-14.5h442.59c8.01,0,14.5,6.49,14.5,14.5v147.77
					C2084.83,1695.35,2078.34,1701.84,2070.33,1701.84z"/>
				<g>
					<path class="st2" d="M1747.65,1549.28H1771l-29.31,124.56h-29.48l-29.14-124.56h23.34l16.27,76.08
						c1.47,6.47,2.92,15.76,4.34,27.86c1.19-10.28,2.7-19.57,4.52-27.86L1747.65,1549.28z"/>
					<path class="st2" d="M1867.7,1611.39c0,20.62-3.86,36.47-11.59,47.54c-7.72,11.08-18.77,16.61-33.14,16.61
						c-14.43,0-25.5-5.52-33.23-16.57c-7.73-11.05-11.59-26.97-11.59-47.76c0-20.62,3.86-36.42,11.59-47.41
						c7.72-10.99,18.85-16.49,33.4-16.49c14.37,0,25.39,5.52,33.06,16.57C1863.86,1574.94,1867.7,1590.77,1867.7,1611.39z
						 M1801.84,1611.39c0,14.2,1.79,25.02,5.37,32.46c3.58,7.44,8.83,11.16,15.76,11.16c13.97,0,20.96-14.54,20.96-43.62
						c0-29.08-6.93-43.62-20.79-43.62c-7.05,0-12.36,3.71-15.93,11.12C1803.63,1586.3,1801.84,1597.13,1801.84,1611.39z"/>
					<path class="st2" d="M1924.1,1673.84h-23.09v-104.2h-23.86v-20.36h70.8v20.36h-23.86V1673.84z"/>
					<path class="st2" d="M2017.4,1673.84h-56.15v-124.56h56.15v20.02h-32.97v29.65h30.59v20.11h-30.59v34.51h32.97V1673.84z"/>
				</g>
			</g>
		</g>
	</g>
	<g>
		<g>
			<g class="st16">
				
					<linearGradient id="SVGID_00000054946490488720512970000008216876429876705175_" gradientUnits="userSpaceOnUse" x1="-1174.8391" y1="5695.79" x2="-811.6464" y2="5695.79" gradientTransform="matrix(0.9289 0.3703 0.3703 -0.9289 1051.8094 7131.7109)">
					<stop  offset="0" style="stop-color:#FF928E"/>
					<stop  offset="1" style="stop-color:#FE7062"/>
				</linearGradient>
				<path style="fill:url(#SVGID_00000054946490488720512970000008216876429876705175_);" d="M2130.47,1275.78
					c3.11,1.64,4.31,5.49,2.68,8.6c-3.18,6.05-6.14,12.32-8.8,18.66c-1.35,3.2-5.01,4.73-8.22,3.44c-0.04-0.02-0.08-0.03-0.12-0.05
					c-3.24-1.36-4.76-5.1-3.4-8.34c2.8-6.66,5.92-13.27,9.27-19.64c1.53-2.91,5-4.15,7.99-2.96
					C2130.07,1275.58,2130.27,1275.67,2130.47,1275.78z M2113.49,1334.73c-1.78,6.63-3.28,13.4-4.48,20.13
					c-0.62,3.46-3.92,5.77-7.39,5.15c-3.47-0.63-5.77-3.93-5.15-7.39c1.26-7.08,2.85-14.2,4.72-21.18c0.91-3.4,4.4-5.41,7.8-4.5
					c0.25,0.07,0.49,0.15,0.72,0.24C2112.66,1328.35,2114.34,1331.58,2113.49,1334.73z M2105.43,1388.16
					c-0.25,6.84-0.21,13.78,0.12,20.62c0.17,3.51-2.54,6.5-6.05,6.67c-3.51,0.17-6.5-2.54-6.67-6.05c-0.35-7.2-0.4-14.51-0.13-21.71
					c0.13-3.51,3.09-6.26,6.6-6.13c0.75,0.03,1.46,0.18,2.12,0.45C2103.86,1382.98,2105.54,1385.4,2105.43,1388.16z
					 M2109.52,1442.05c1.28,6.73,2.87,13.49,4.73,20.08c0.95,3.39-1.02,6.9-4.41,7.85c-3.39,0.95-6.9-1.03-7.85-4.41
					c-1.95-6.94-3.62-14.05-4.98-21.14c-0.66-3.45,1.61-6.79,5.06-7.45c1.24-0.24,2.46-0.1,3.54,0.34
					C2107.57,1438.1,2109.1,1439.83,2109.52,1442.05z M2125.52,1493.68c2.74,6.27,5.79,12.5,9.06,18.54
					c1.67,3.09,0.53,6.96-2.56,8.63c-3.09,1.68-6.96,0.53-8.63-2.57c-3.44-6.35-6.65-12.91-9.53-19.5
					c-1.41-3.22,0.06-6.98,3.28-8.38c1.62-0.71,3.38-0.69,4.91-0.08C2123.54,1490.92,2124.82,1492.08,2125.52,1493.68z
					 M2152.54,1540.49c4.06,5.51,8.41,10.92,12.93,16.07c2.32,2.64,2.06,6.67-0.59,8.98c-2.64,2.32-6.67,2.06-8.99-0.59
					c-4.75-5.42-9.33-11.11-13.61-16.91c-2.09-2.83-1.48-6.82,1.35-8.9c1.84-1.36,4.16-1.57,6.14-0.79
					C2150.84,1538.78,2151.81,1539.5,2152.54,1540.49z M2364.9,1644.45c0.17,3.51-2.55,6.5-6.06,6.66
					c-7.2,0.34-14.5,0.37-21.72,0.09c-3.51-0.14-6.25-3.1-6.11-6.61c0.14-3.51,3.1-6.25,6.61-6.11c6.85,0.27,13.79,0.24,20.62-0.08
					c0.94-0.04,1.84,0.12,2.66,0.44C2363.15,1639.73,2364.78,1641.87,2364.9,1644.45z M2189.24,1580.12
					c5.18,4.47,10.63,8.77,16.18,12.77c2.85,2.06,3.49,6.04,1.43,8.89c-2.06,2.85-6.03,3.48-8.89,1.43
					c-5.84-4.22-11.57-8.74-17.03-13.45c-2.66-2.3-2.96-6.32-0.67-8.98c1.82-2.11,4.73-2.74,7.18-1.76
					C2188.08,1579.28,2188.69,1579.64,2189.24,1580.12z M2309.45,1642.23c-0.62,3.46-3.94,5.76-7.4,5.13
					c-7.09-1.28-14.22-2.88-21.18-4.76c-3.4-0.9-5.4-4.41-4.49-7.81c0.92-3.39,4.41-5.4,7.81-4.49c6.62,1.79,13.4,3.31,20.13,4.53
					c0.43,0.08,0.84,0.2,1.23,0.35C2308.31,1636.28,2310,1639.2,2309.45,1642.23z M2233.87,1610.55c6.05,3.19,12.32,6.17,18.63,8.84
					c3.24,1.37,4.75,5.11,3.38,8.34c-1.35,3.2-5.01,4.71-8.22,3.43c-0.04-0.02-0.08-0.03-0.12-0.05c-6.65-2.81-13.25-5.94-19.61-9.3
					c-3.11-1.64-4.3-5.49-2.66-8.6c1.53-2.9,5-4.13,7.98-2.94C2233.46,1610.34,2233.66,1610.44,2233.87,1610.55z"/>
				
					<linearGradient id="SVGID_00000115504912698253716790000008838125435662869405_" gradientUnits="userSpaceOnUse" x1="-793.9913" y1="5600.1343" x2="-772.7801" y2="5600.1343" gradientTransform="matrix(0.9289 0.3703 0.3703 -0.9289 1051.8094 7131.7109)">
					<stop  offset="0" style="stop-color:#FF928E"/>
					<stop  offset="1" style="stop-color:#FE7062"/>
				</linearGradient>
				<path style="fill:url(#SVGID_00000115504912698253716790000008838125435662869405_);" d="M2405.19,1632.69
					c-1.16-0.46-2.48-0.59-3.79-0.29c-3.2,0.74-6.46,1.43-9.71,2.05c-3.45,0.66-5.72,3.99-5.07,7.44c0.66,3.46,3.99,5.73,7.44,5.07
					c3.41-0.65,6.85-1.37,10.21-2.15c3.42-0.8,5.56-4.22,4.76-7.64C2408.55,1635.05,2407.06,1633.44,2405.19,1632.69z"/>
			</g>
			<g class="st16">
				
					<linearGradient id="SVGID_00000016049554471531016430000009626790491362305425_" gradientUnits="userSpaceOnUse" x1="-683.8964" y1="5762.2178" x2="-669.3411" y2="5762.2178" gradientTransform="matrix(0.9289 0.3703 0.3703 -0.9289 1051.8094 7131.7109)">
					<stop  offset="0" style="stop-color:#FF928E"/>
					<stop  offset="1" style="stop-color:#FE7062"/>
				</linearGradient>
				<path style="fill:url(#SVGID_00000016049554471531016430000009626790491362305425_);" d="M2562.1,1518.4
					c-2.85-1.14-6.19-0.07-7.82,2.65c-1.68,2.82-3.45,5.65-5.26,8.41c-1.93,2.94-1.1,6.89,1.84,8.81c2.96,1.93,6.89,1.1,8.81-1.84
					c1.9-2.91,3.77-5.89,5.54-8.86c1.8-3.02,0.82-6.93-2.2-8.73C2562.72,1518.67,2562.41,1518.52,2562.1,1518.4z"/>
				
					<linearGradient id="SVGID_00000155853811751095682130000011926053523510512011_" gradientUnits="userSpaceOnUse" x1="-1040.3276" y1="5927.7798" x2="-666.2308" y2="5927.7798" gradientTransform="matrix(0.9289 0.3703 0.3703 -0.9289 1051.8094 7131.7109)">
					<stop  offset="0" style="stop-color:#FF928E"/>
					<stop  offset="1" style="stop-color:#FE7062"/>
				</linearGradient>
				<path style="fill:url(#SVGID_00000155853811751095682130000011926053523510512011_);" d="M2452.85,1165.78
					c3.2,1.46,4.61,5.24,3.15,8.44c-1.46,3.2-5.23,4.6-8.44,3.15c-6.09-2.78-12.39-5.34-18.81-7.65c-3.3-1.17-5.02-4.84-3.83-8.15
					c1.19-3.31,4.84-5.02,8.15-3.83c2.78,1,5.53,2.04,8.25,3.13C2445.2,1162.4,2449.08,1164.06,2452.85,1165.78z M2404.6,1155.77
					c-0.73,3.44-4.12,5.63-7.55,4.9c-6.6-1.41-13.34-2.55-20.01-3.4c-3.49-0.43-5.96-3.63-5.52-7.12c0.44-3.49,3.63-5.96,7.12-5.51
					c7.03,0.89,14.12,2.09,21.07,3.58c0.36,0.08,0.71,0.18,1.04,0.31C2403.57,1149.65,2405.26,1152.69,2404.6,1155.77z
					 M2483.35,1182.32c5.98,3.8,11.88,7.9,17.54,12.2c2.8,2.13,3.34,6.12,1.22,8.92c-2.13,2.8-6.12,3.34-8.92,1.21
					c-5.37-4.08-10.97-7.98-16.65-11.58c-2.97-1.89-3.85-5.82-1.97-8.79c1.67-2.63,4.94-3.62,7.73-2.51
					C2482.65,1181.92,2483.01,1182.1,2483.35,1182.32z M2350.42,1148.94c0.04,3.52-2.78,6.4-6.29,6.44
					c-6.74,0.08-13.56,0.44-20.26,1.09c-3.5,0.34-6.61-2.23-6.95-5.73c-0.34-3.5,2.23-6.61,5.73-6.95
					c7.06-0.68,14.24-1.07,21.34-1.15c0.86-0.01,1.68,0.15,2.43,0.45C2348.73,1144.02,2350.39,1146.28,2350.42,1148.94z
					 M2526.98,1217.35c5,5.02,9.85,10.31,14.42,15.75c2.26,2.69,1.92,6.71-0.77,8.97c-2.69,2.27-6.71,1.92-8.97-0.77
					c-4.34-5.16-8.95-10.2-13.7-14.96c-2.48-2.49-2.47-6.52,0.02-9.01c1.86-1.85,4.57-2.32,6.85-1.4
					C2525.62,1216.24,2526.35,1216.71,2526.98,1217.35z M2561.88,1261.1c3.79,6,7.37,12.23,10.64,18.52
					c1.62,3.12,0.41,6.96-2.71,8.59c-3.12,1.62-6.97,0.41-8.59-2.71c-3.11-5.97-6.51-11.89-10.11-17.6
					c-1.88-2.97-0.99-6.91,1.98-8.78c1.79-1.13,3.93-1.26,5.76-0.53C2560.06,1259.07,2561.13,1259.92,2561.88,1261.1z
					 M2586.41,1311.41c2.39,6.69,4.53,13.55,6.35,20.39c0.9,3.4-1.12,6.89-4.51,7.79c-3.4,0.91-6.89-1.12-7.79-4.51
					c-1.73-6.51-3.76-13.02-6.04-19.38c-1.19-3.31,0.54-6.96,3.85-8.14c1.52-0.54,3.11-0.48,4.5,0.08
					C2584.4,1308.3,2585.77,1309.62,2586.41,1311.41z M2599.38,1365.88c0.87,7.05,1.46,14.21,1.73,21.3
					c0.14,3.51-2.6,6.47-6.12,6.61c-3.51,0.14-6.47-2.6-6.61-6.12c-0.26-6.73-0.81-13.53-1.64-20.23c-0.43-3.49,2.04-6.67,5.53-7.1
					c1.1-0.14,2.17,0.02,3.14,0.4C2597.5,1361.58,2599.08,1363.49,2599.38,1365.88z M2600.06,1421.9c-0.7,7.05-1.71,14.16-3,21.14
					c-0.64,3.46-3.96,5.74-7.42,5.1c-3.45-0.64-5.74-3.96-5.1-7.42c1.23-6.63,2.19-13.39,2.85-20.08c0.35-3.5,3.47-6.05,6.96-5.71
					c0.61,0.06,1.19,0.2,1.73,0.42C2598.65,1416.38,2600.35,1419.01,2600.06,1421.9z M2588.44,1476.64
					c-1.63,4.96-3.44,9.93-5.37,14.77c-0.7,1.75-1.41,3.49-2.15,5.22c-1.37,3.24-5.1,4.83-8.35,3.37c-3.24-1.37-4.75-5.11-3.38-8.35
					c0.7-1.64,1.38-3.3,2.04-4.96c1.83-4.6,3.55-9.32,5.11-14.04c1.1-3.34,4.7-5.15,8.04-4.05c0.13,0.04,0.25,0.09,0.37,0.13
					C2587.86,1469.97,2589.5,1473.43,2588.44,1476.64z"/>
				
					<linearGradient id="SVGID_00000093897938050234114910000015045226883168498051_" gradientUnits="userSpaceOnUse" x1="-1077.6163" y1="6006.6265" x2="-1056.6757" y2="6006.6265" gradientTransform="matrix(0.9289 0.3703 0.3703 -0.9289 1051.8094 7131.7109)">
					<stop  offset="0" style="stop-color:#FF928E"/>
					<stop  offset="1" style="stop-color:#FE7062"/>
				</linearGradient>
				<path style="fill:url(#SVGID_00000093897938050234114910000015045226883168498051_);" d="M2292.07,1149.8
					c-1.18-0.47-2.5-0.59-3.82-0.28c-3.35,0.8-6.75,1.68-10.11,2.62c-3.39,0.95-5.36,4.47-4.4,7.85c0.95,3.38,4.47,5.36,7.85,4.4
					c3.18-0.9,6.41-1.74,9.6-2.49c3.42-0.81,5.54-4.24,4.72-7.67C2295.41,1152.14,2293.93,1150.54,2292.07,1149.8z"/>
			</g>
			<g>
				
					<linearGradient id="SVGID_00000153697873565938318850000012676728926538123934_" gradientUnits="userSpaceOnUse" x1="2502.5469" y1="1106.3907" x2="2946.8884" y2="274.3387">
					<stop  offset="0" style="stop-color:#FF928E"/>
					<stop  offset="1" style="stop-color:#FE7062"/>
				</linearGradient>
				<path style="fill:url(#SVGID_00000153697873565938318850000012676728926538123934_);" d="M2234.73,1242.68
					c-1.11,0.62-1.71,1.87-1.49,3.12l6.31,35.67c-12.52,11.37-23.32,24.82-31.8,40.02l-36.14,1.94c-1.27,0.07-2.35,0.93-2.7,2.15
					l-11.94,41.77c-0.35,1.22,0.11,2.53,1.15,3.26l29.66,20.75c-0.84,17.39,1.22,34.51,5.85,50.78l-24.2,26.95
					c-0.85,0.94-1,2.32-0.39,3.43l21.1,37.98c0.62,1.11,1.87,1.71,3.12,1.49l35.67-6.31c11.37,12.52,24.82,23.33,40.02,31.8
					l1.94,36.14c0.07,1.27,0.93,2.35,2.15,2.7l41.77,11.94c1.22,0.35,2.53-0.12,3.26-1.16l20.75-29.66
					c17.39,0.84,34.51-1.22,50.78-5.85l26.95,24.2c0.94,0.85,2.32,1,3.43,0.39l37.98-21.1c1.11-0.62,1.71-1.87,1.49-3.12
					l-6.31-35.67c12.52-11.37,23.32-24.82,31.8-40.02l36.14-1.94c1.27-0.07,2.35-0.93,2.7-2.15l11.94-41.77
					c0.35-1.22-0.12-2.53-1.16-3.26l-29.66-20.75c0.84-17.39-1.22-34.51-5.85-50.78l24.2-26.95c0.85-0.94,1-2.32,0.39-3.43
					l-21.1-37.98c-0.62-1.11-1.87-1.71-3.12-1.49l-35.67,6.31c-11.37-12.52-24.82-23.33-40.02-31.8l-1.94-36.14
					c-0.07-1.27-0.93-2.35-2.15-2.7l-41.77-11.94c-1.22-0.35-2.53,0.11-3.26,1.16l-20.75,29.66c-17.39-0.84-34.51,1.22-50.78,5.85
					l-26.95-24.2c-0.94-0.85-2.32-1-3.43-0.39L2234.73,1242.68z"/>
				<path class="st23" d="M2368.26,1361.11c20.83,12.08,27.95,38.86,15.86,59.69c-5.85,10.09-15.29,17.3-26.56,20.29
					c-11.27,3-23.04,1.43-33.13-4.43c-20.83-12.08-27.95-38.86-15.86-59.69c10.99-18.95,34.15-26.55,53.92-18.67
					C2364.45,1359.09,2366.38,1360.02,2368.26,1361.11z M2354.95,1431.25c8.64-2.3,15.88-7.82,20.36-15.56
					c9.26-15.97,3.81-36.5-12.16-45.76c-15.97-9.27-36.5-3.81-45.76,12.16c-9.26,15.97-3.81,36.5,12.16,45.76
					c1.45,0.84,2.94,1.56,4.47,2.17C2340.64,1432.66,2347.92,1433.11,2354.95,1431.25z"/>
				<path class="st23" d="M2386.68,1300.04c-3.4-1.35-6.88-2.54-10.44-3.56l0,0c-1.12-0.32-2.25-0.62-3.38-0.91
					c-5.58-1.4-11.26-2.36-16.96-2.85c-0.08-0.01-0.16-0.01-0.23-0.02c-0.22-0.02-0.44-0.04-0.66-0.05
					c-0.43-0.03-0.86-0.06-1.29-0.09c-1.13-0.08-2.14,0.6-2.53,1.6c-0.1,0.24-0.16,0.5-0.18,0.78c-0.09,1.4,0.97,2.61,2.37,2.71
					c7.22,0.48,14.44,1.74,21.46,3.74c34.85,9.95,60.31,36.94,69.95,69.35c5.36,18.02,5.83,37.73,0.29,57.11
					c-0.97,3.4-2.11,6.72-3.4,9.96c-8.69,21.8-24.49,39.8-45.28,51.35c-23.88,13.27-51.51,16.44-77.77,8.93
					c-54.25-15.51-85.74-72.23-70.24-126.45c0.96-3.34,2.08-6.63,3.36-9.84c5.55-13.91,14.07-26.44,25.01-36.68
					c0.28-0.26,0.49-0.58,0.62-0.92c0.35-0.89,0.19-1.94-0.51-2.68c-0.96-1.02-2.57-1.08-3.6-0.12
					c-11.49,10.75-20.44,23.91-26.26,38.51c-1.34,3.37-2.52,6.81-3.52,10.32c-16.27,56.93,16.83,116.49,73.74,132.75
					c27.58,7.88,56.57,4.55,81.65-9.38c21.83-12.12,38.41-31.02,47.54-53.9c1.36-3.4,2.55-6.89,3.57-10.46
					c7.88-27.58,4.55-56.58-9.38-81.65C2428.47,1325.75,2409.57,1309.17,2386.68,1300.04z"/>
			</g>
		</g>
		<g>
			<g class="st16">
				
					<linearGradient id="SVGID_00000143597549627126314330000011109384826041738913_" gradientUnits="userSpaceOnUse" x1="-1366.301" y1="5999.4409" x2="-1356.6359" y2="5999.4409" gradientTransform="matrix(0.9289 0.3703 0.3703 -0.9289 1051.8094 7131.7109)">
					<stop  offset="0" style="stop-color:#FF928E"/>
					<stop  offset="1" style="stop-color:#FE7062"/>
				</linearGradient>
				<path style="fill:url(#SVGID_00000143597549627126314330000011109384826041738913_);" d="M2012.81,1047.57
					c-1.48-0.59-3.22-0.17-4.25,1.15c-1.92,2.45-3.8,5-5.57,7.56c-1.15,1.67-0.74,3.95,0.93,5.11c1.67,1.16,3.95,0.73,5.11-0.93
					c1.69-2.45,3.48-4.87,5.31-7.21c1.25-1.59,0.97-3.9-0.62-5.15C2013.44,1047.87,2013.13,1047.7,2012.81,1047.57z"/>
				
					<linearGradient id="SVGID_00000039831986680447683090000004265231027103593875_" gradientUnits="userSpaceOnUse" x1="-1370.2133" y1="5890.8604" x2="-1180.7794" y2="5890.8604" gradientTransform="matrix(0.9289 0.3703 0.3703 -0.9289 1051.8094 7131.7109)">
					<stop  offset="0" style="stop-color:#FF928E"/>
					<stop  offset="1" style="stop-color:#FE7062"/>
				</linearGradient>
				<path style="fill:url(#SVGID_00000039831986680447683090000004265231027103593875_);" d="M1997.85,1071.46
					c1.8,0.94,2.49,3.16,1.55,4.95c-2.37,4.54-4.53,9.25-6.42,14c-0.4,1-0.79,2.01-1.17,3.03c-0.71,1.9-2.83,2.86-4.73,2.15
					c-1.77-0.74-2.86-2.83-2.15-4.73c0.4-1.06,0.81-2.12,1.23-3.17c1.99-4.98,4.25-9.92,6.74-14.68c0.88-1.68,2.88-2.4,4.61-1.71
					C1997.62,1071.35,1997.73,1071.41,1997.85,1071.46z M1986.34,1111.28c-1.45,6.03-2.55,12.21-3.25,18.36
					c-0.23,2.02-2.05,3.46-4.06,3.23c-2-0.23-3.46-2.05-3.23-4.06c0.73-6.44,1.88-12.92,3.4-19.24c0.48-1.97,2.46-3.18,4.43-2.71
					c0.17,0.04,0.34,0.1,0.5,0.16C1985.81,1107.68,1986.78,1109.48,1986.34,1111.28z M1982.15,1148.26
					c0.07,6.2,0.53,12.45,1.36,18.6c0.27,2.01-1.13,3.86-3.14,4.13c-2.02,0.27-3.86-1.13-4.13-3.14c-0.88-6.44-1.36-13.01-1.43-19.5
					c-0.02-2.03,1.6-3.69,3.63-3.71c0.49,0,0.97,0.09,1.4,0.26C1981.17,1145.43,1982.13,1146.73,1982.15,1148.26z M1987.16,1185.14
					c1.59,6,3.56,11.95,5.87,17.69c0.76,1.88-0.16,4.02-2.04,4.78c-1.88,0.75-4.02-0.15-4.78-2.04c-2.42-6.02-4.49-12.26-6.16-18.55
					c-0.52-1.96,0.65-3.97,2.61-4.49c0.79-0.21,1.59-0.14,2.3,0.14C1986.01,1183.09,1986.85,1183.97,1987.16,1185.14z
					 M2001.03,1219.68c3,5.43,6.36,10.72,9.99,15.74c1.19,1.64,0.82,3.94-0.82,5.13c-1.64,1.19-3.94,0.83-5.13-0.82
					c-3.81-5.25-7.33-10.8-10.48-16.49c-0.98-1.78-0.34-4.01,1.44-4.99c1-0.55,2.15-0.59,3.14-0.2
					C1999.94,1218.35,2000.6,1218.91,2001.03,1219.68z M2022.87,1249.81c4.22,4.53,8.77,8.84,13.52,12.81
					c1.55,1.3,1.76,3.62,0.46,5.17c-1.3,1.55-3.61,1.76-5.17,0.46c-4.98-4.16-9.75-8.68-14.18-13.44c-1.38-1.48-1.3-3.81,0.18-5.19
					c1.07-1,2.59-1.23,3.87-0.73C2022.03,1249.1,2022.48,1249.4,2022.87,1249.81z M2051.39,1273.67c5.19,3.35,10.66,6.41,16.26,9.11
					c1.83,0.88,2.59,3.08,1.71,4.9c-0.88,1.83-3.06,2.57-4.9,1.72c-5.87-2.83-11.61-6.04-17.05-9.55c-1.7-1.1-2.2-3.37-1.1-5.08
					c0.97-1.5,2.84-2.06,4.44-1.42C2050.98,1273.43,2051.19,1273.54,2051.39,1273.67z M2105.77,1299.04
					c-0.41,1.99-2.35,3.26-4.34,2.85c-5.5-1.13-11.03-2.59-16.42-4.32c-0.82-0.26-1.63-0.53-2.45-0.8
					c-1.93-0.59-2.95-2.74-2.29-4.66c0.65-1.92,2.74-2.95,4.66-2.3c0.76,0.26,1.53,0.51,2.31,0.76c5.16,1.66,10.44,3.05,15.68,4.13
					c0.22,0.04,0.42,0.11,0.62,0.19C2105.17,1295.54,2106.14,1297.27,2105.77,1299.04z"/>
			</g>
			<g class="st16">
				
					<linearGradient id="SVGID_00000178927798439002242880000005936042236701594258_" gradientUnits="userSpaceOnUse" x1="-1285.6755" y1="6072.4595" x2="-1069.4679" y2="6072.4595" gradientTransform="matrix(0.9289 0.3703 0.3703 -0.9289 1051.8094 7131.7109)">
					<stop  offset="0" style="stop-color:#FF928E"/>
					<stop  offset="1" style="stop-color:#FE7062"/>
				</linearGradient>
				<path style="fill:url(#SVGID_00000178927798439002242880000005936042236701594258_);" d="M2194.18,1000.08
					c5.91,2.45,11.73,5.28,17.28,8.41c1.76,1,2.39,3.23,1.39,5c-1,1.77-3.24,2.37-5,1.39c-5.3-2.99-10.84-5.69-16.49-8.02
					c-1.87-0.77-2.76-2.92-1.99-4.8c0.77-1.86,2.89-2.75,4.75-2.01C2194.14,1000.06,2194.17,1000.07,2194.18,1000.08z
					 M2178.55,998.33c-0.54,1.95-2.57,3.09-4.52,2.55c-5.88-1.64-11.91-2.94-17.94-3.86c-1.99-0.31-3.38-2.18-3.07-4.19
					c0.31-2,2.18-3.38,4.19-3.07c6.31,0.97,12.64,2.33,18.79,4.05c0.13,0.04,0.25,0.08,0.38,0.13
					C2178.1,994.62,2179.06,996.51,2178.55,998.33z M2227.61,1018.94c5.15,3.81,10.11,7.96,14.74,12.34
					c1.47,1.39,1.54,3.72,0.14,5.19c-1.39,1.48-3.71,1.54-5.19,0.15c-4.42-4.18-9.15-8.14-14.06-11.77
					c-1.63-1.21-1.97-3.5-0.77-5.13c1.01-1.37,2.8-1.83,4.31-1.23C2227.08,1018.6,2227.35,1018.75,2227.61,1018.94z M2141.61,991.79
					c-0.06,2.03-1.75,3.62-3.78,3.56c-6.1-0.18-12.26,0.01-18.33,0.58c-2.02,0.18-3.81-1.3-4-3.31c-0.19-2.02,1.3-3.81,3.32-4
					c6.36-0.59,12.83-0.8,19.23-0.61c0.44,0.01,0.86,0.11,1.25,0.26C2140.69,988.83,2141.65,990.21,2141.61,991.79z
					 M2255.48,1045.31c4.07,4.92,7.89,10.14,11.34,15.52c1.1,1.71,0.6,3.98-1.11,5.07c-1.71,1.1-3.98,0.6-5.07-1.11
					c-3.29-5.13-6.93-10.11-10.82-14.8c-1.29-1.56-1.08-3.88,0.49-5.17c1.07-0.89,2.5-1.06,3.7-0.58
					C2254.57,1044.47,2255.08,1044.82,2255.48,1045.31z M2276.22,1077.61c2.78,5.76,5.24,11.75,7.3,17.79
					c0.66,1.92-0.37,4-2.29,4.66c-1.92,0.66-4.01-0.37-4.66-2.29c-1.97-5.76-4.31-11.47-6.97-16.97c-0.88-1.83-0.11-4.02,1.71-4.9
					c0.96-0.46,2.03-0.47,2.96-0.1C2275.1,1076.12,2275.8,1076.75,2276.22,1077.61z M2288.63,1113.94
					c1.32,6.27,2.27,12.67,2.82,19.03c0.17,2.02-1.32,3.8-3.34,3.97c-2.02,0.18-3.8-1.32-3.97-3.34
					c-0.52-6.06-1.43-12.17-2.69-18.14c-0.42-1.98,0.85-3.93,2.83-4.35c0.74-0.16,1.47-0.08,2.12,0.18
					C2287.49,1111.73,2288.36,1112.69,2288.63,1113.94z"/>
				
					<linearGradient id="SVGID_00000013174919601603030550000011831646864115848070_" gradientUnits="userSpaceOnUse" x1="-1309.4427" y1="6085.9805" x2="-1294.6564" y2="6085.9805" gradientTransform="matrix(0.9289 0.3703 0.3703 -0.9289 1051.8094 7131.7109)">
					<stop  offset="0" style="stop-color:#FF928E"/>
					<stop  offset="1" style="stop-color:#FE7062"/>
				</linearGradient>
				<path style="fill:url(#SVGID_00000013174919601603030550000011831646864115848070_);" d="M2101.78,991.77
					c-0.66-0.26-1.4-0.34-2.14-0.17c-3.07,0.67-6.13,1.44-9.11,2.28c-1.95,0.55-3.09,2.58-2.54,4.53c0.55,1.95,2.58,3.09,4.53,2.54
					c2.84-0.8,5.76-1.53,8.69-2.17c1.98-0.43,3.23-2.39,2.8-4.37C2103.74,993.16,2102.87,992.21,2101.78,991.77z"/>
			</g>
			<g>
				
					<linearGradient id="SVGID_00000059293191974898579500000016326361737641921977_" gradientUnits="userSpaceOnUse" x1="2264.478" y1="884.8954" x2="2691.3953" y2="31.0629">
					<stop  offset="0" style="stop-color:#FF928E"/>
					<stop  offset="1" style="stop-color:#FE7062"/>
				</linearGradient>
				<path style="fill:url(#SVGID_00000059293191974898579500000016326361737641921977_);" d="M2063.32,1050.14
					c-0.69,0.39-1.07,1.17-0.93,1.95l3.94,22.28c-7.82,7.1-14.57,15.5-19.87,25l-22.58,1.21c-0.79,0.04-1.47,0.58-1.69,1.35
					l-7.46,26.1c-0.22,0.76,0.07,1.58,0.72,2.03l18.53,12.96c-0.52,10.86,0.76,21.56,3.65,31.73l-15.12,16.84
					c-0.53,0.59-0.63,1.45-0.24,2.15l13.18,23.73c0.38,0.69,1.17,1.07,1.95,0.93l22.28-3.94c7.1,7.82,15.51,14.57,25,19.87
					l1.21,22.58c0.04,0.79,0.58,1.47,1.35,1.69l26.1,7.46c0.76,0.22,1.58-0.07,2.03-0.72l12.96-18.53
					c10.86,0.52,21.56-0.76,31.73-3.65l16.84,15.12c0.59,0.53,1.45,0.63,2.14,0.24l23.73-13.18c0.69-0.39,1.07-1.17,0.93-1.95
					l-3.94-22.28c7.82-7.1,14.57-15.5,19.87-25l22.58-1.21c0.79-0.04,1.47-0.58,1.69-1.35l7.46-26.1c0.22-0.76-0.07-1.58-0.72-2.03
					l-18.53-12.96c0.52-10.86-0.76-21.56-3.65-31.73l15.12-16.84c0.53-0.59,0.63-1.45,0.24-2.15l-13.18-23.73
					c-0.39-0.69-1.17-1.07-1.95-0.93l-22.28,3.94c-7.1-7.82-15.5-14.57-25-19.87l-1.21-22.58c-0.04-0.79-0.58-1.47-1.35-1.69
					l-26.1-7.46c-0.76-0.22-1.58,0.07-2.03,0.72l-12.96,18.53c-10.86-0.52-21.56,0.77-31.73,3.65l-16.84-15.12
					c-0.59-0.53-1.45-0.63-2.14-0.24L2063.32,1050.14z"/>
				<path class="st23" d="M2146.99,1123.71c6.42,3.72,11,9.72,12.91,16.89c1.91,7.17,0.91,14.65-2.82,21.07
					c-7.68,13.25-24.68,17.76-37.96,10.09c-13.25-7.69-17.77-24.72-10.09-37.96c3.72-6.42,9.72-11,16.89-12.91
					c5.83-1.55,11.86-1.18,17.37,1.02C2144.55,1122.42,2145.79,1123.02,2146.99,1123.71z M2150.73,1157.99
					c2.74-4.72,3.48-10.23,2.07-15.5c-1.4-5.27-4.77-9.69-9.49-12.42l0,0c-4.72-2.73-10.22-3.47-15.5-2.07
					c-5.27,1.4-9.68,4.77-12.42,9.49c-5.65,9.74-2.32,22.27,7.42,27.92c0.88,0.51,1.78,0.95,2.7,1.31
					C2134.75,1170.41,2145.59,1166.85,2150.73,1157.99z"/>
				<path class="st23" d="M2158.96,1084.03c-2.16-0.86-4.38-1.62-6.66-2.27c-4.53-1.3-9.19-2.13-13.87-2.48
					c-0.21-0.01-0.42-0.03-0.63-0.04c-1.63-0.11-3.08,0.86-3.65,2.3c-0.14,0.35-0.23,0.73-0.25,1.12c-0.13,2.02,1.4,3.76,3.42,3.9
					c4.37,0.29,8.74,1.05,12.97,2.26l0,0c0.23,0.07,0.46,0.14,0.69,0.2c9.99,2.96,18.86,8.29,26.02,15.47
					c3.89,3.9,7.28,8.34,10.07,13.26c0.02,0.04,0.05,0.08,0.07,0.12c0.07,0.12,0.14,0.24,0.21,0.37c8.02,14.44,9.94,31.13,5.4,47.01
					c-0.59,2.06-1.27,4.06-2.05,6.02c-5.25,13.18-14.8,24.05-27.37,31.04c-14.44,8.02-31.13,9.93-47.01,5.4
					c-15.87-4.54-29.04-14.99-37.06-29.42c-8.02-14.44-9.94-31.13-5.4-47.01c0.58-2.02,1.25-4,2.03-5.94
					c3.35-8.41,8.51-15.98,15.12-22.17c0.41-0.38,0.71-0.83,0.9-1.32c0.51-1.28,0.28-2.8-0.73-3.87c-1.39-1.48-3.71-1.56-5.19-0.17
					c-7.4,6.92-13.17,15.4-16.92,24.8c-0.87,2.17-1.62,4.39-2.27,6.65c-5.08,17.77-2.93,36.44,6.04,52.6
					c8.97,16.15,23.68,27.85,41.46,32.92c17.76,5.08,36.44,2.93,52.59-6.04c14.06-7.81,24.74-19.98,30.62-34.72
					c0.87-2.19,1.64-4.44,2.3-6.73C2209.63,1132.88,2191.5,1097,2158.96,1084.03z"/>
			</g>
		</g>
	</g>
	<g>
		<g>
			
				<linearGradient id="SVGID_00000145764561773046183240000004219175940560249986_" gradientUnits="userSpaceOnUse" x1="-2708.23" y1="677.7095" x2="-2627.3533" y2="880.5872" gradientTransform="matrix(-1 0 0 1 -1473.4333 0)">
				<stop  offset="0" style="stop-color:#09005D"/>
				<stop  offset="1" style="stop-color:#1A0F91"/>
			</linearGradient>
			<path style="fill:url(#SVGID_00000145764561773046183240000004219175940560249986_);" d="M1186.84,786.84
				c0,0-27.27,13.26-32.28,28.5c-4.02,12.22-34.17,13.8-37.15,37.84c-1.54,12.41-10.72,22.35-23.09,24.25
				c-30.79,4.72-78.24,20.71-85.84,74.17c-5.8,40.81,15.01,56.28,36.84,61.64c16.03,3.93,26.69,19.53,23.45,35.72
				c-3.11,15.53,1.53,33.48,28.43,47.67c60.28,31.81,120.48-75.36,120.48-75.36l12.34-187.11L1186.84,786.84z"/>
			
				<linearGradient id="SVGID_00000139265280809112990670000009428037594317023904_" gradientUnits="userSpaceOnUse" x1="-2943.0039" y1="383.2204" x2="-2793.5908" y2="723.1686" gradientTransform="matrix(-0.9776 -0.2106 -0.2106 0.9776 -1371.4062 -162.1075)">
				<stop  offset="0" style="stop-color:#FEBBBA"/>
				<stop  offset="1" style="stop-color:#FF928E"/>
			</linearGradient>
			<path style="fill:url(#SVGID_00000139265280809112990670000009428037594317023904_);" d="M1514.84,742.48
				c0,0-120.36,190.37-263.48,227.14c0,0,27.89,79.43,49.41,88.52c0,0,176.08-146.92,221.33-288.61L1514.84,742.48z"/>
			
				<linearGradient id="SVGID_00000022546045071891918680000011565481522557209242_" gradientUnits="userSpaceOnUse" x1="-2320.6338" y1="1041.9531" x2="-2365.1836" y2="1763.6559" gradientTransform="matrix(-1 0 0 1 -1473.4333 0)">
				<stop  offset="0" style="stop-color:#4F52FF"/>
				<stop  offset="1" style="stop-color:#4042E2"/>
			</linearGradient>
			<path style="fill:url(#SVGID_00000022546045071891918680000011565481522557209242_);" d="M939.06,1960.11l-3.9,32.07
				c-0.74,6.08-5.53,10.89-11.62,11.59c-10.28,1.17-26.78,2.38-42.92,0.67c-7.08-0.75-11.68-7.92-9.53-14.71
				c3.93-12.38,11.13-30.96,21.51-41.9h35.57C934.76,1947.82,939.86,1953.58,939.06,1960.11z"/>
			
				<linearGradient id="SVGID_00000036959171960390349020000012894718210613310853_" gradientUnits="userSpaceOnUse" x1="-2702.3667" y1="2246.9971" x2="-2603.6746" y2="1093.5316" gradientTransform="matrix(-1 0 0 1 -1473.4333 0)">
				<stop  offset="0" style="stop-color:#FEBBBA"/>
				<stop  offset="1" style="stop-color:#FF928E"/>
			</linearGradient>
			<path style="fill:url(#SVGID_00000036959171960390349020000012894718210613310853_);" d="M1217.68,1584.45l6,35.32
				c0,0-20.11,203.67-23.68,285.13c-0.56,12.77,2.74,25.39,9.45,36.28l34.96,56.78l-88.86-52.43l-1.77-10.84l14.55-20l-19.05-228.16
				c-1.12-13.4,1.65-26.84,7.97-38.72l18.38-34.53L1217.68,1584.45z"/>
			
				<linearGradient id="SVGID_00000087375923296462046880000013525475274178974349_" gradientUnits="userSpaceOnUse" x1="-2617.0356" y1="1023.6612" x2="-2661.5852" y2="1745.3622" gradientTransform="matrix(-1 0 0 1 -1473.4333 0)">
				<stop  offset="0" style="stop-color:#4F52FF"/>
				<stop  offset="1" style="stop-color:#4042E2"/>
			</linearGradient>
			<path style="fill:url(#SVGID_00000087375923296462046880000013525475274178974349_);" d="M1250.27,2006.18h-28.36
				c-5.31,0-10.31-2.44-13.55-6.64c-8.84-11.49-27.15-33.9-35.91-34.48c-11.79-0.79-10.28,41.12-10.28,41.12h-6.61l-8.37-52.08
				c-2.11-13.1,4.41-26.08,16.18-32.22c0,0,2.69,19.93,17.31,28.75c14.61,8.82,59.46,40.39,59.46,40.39s5.49-0.78,11.52,0.31
				C1260.61,1992.94,1259.36,2006.18,1250.27,2006.18z"/>
			
				<linearGradient id="SVGID_00000078732526512854909820000017585066205712420019_" gradientUnits="userSpaceOnUse" x1="-2503.8413" y1="2264.1599" x2="-2405.1233" y2="1110.3915" gradientTransform="matrix(-1 0 0 1 -1473.4333 0)">
				<stop  offset="0" style="stop-color:#FEBBBA"/>
				<stop  offset="1" style="stop-color:#FF928E"/>
			</linearGradient>
			<path style="fill:url(#SVGID_00000078732526512854909820000017585066205712420019_);" d="M1095.98,1601.23
				c0,0-117.79,223.44-136.52,274.45c-18.72,51.01-25.28,93.57-25.53,97.6c-0.39,6.3-8.22,12.34-29.81,12.34
				c-11.14,0-16.6-4.47-19.27-8.79c-2.28-3.69-2.4-8.3-0.48-12.19c6.81-13.79,28.44-57.86,36.45-77.84
				c9.56-23.86,30.13-132.01,41.41-169.61s24.03-78.39,73.15-115.96C1035.37,1601.23,1069.09,1568.2,1095.98,1601.23z"/>
			
				<linearGradient id="SVGID_00000065784938044429599270000008316048958558076800_" gradientUnits="userSpaceOnUse" x1="2367.2029" y1="377.5288" x2="1805.2402" y2="743.4582">
				<stop  offset="0" style="stop-color:#FF928E"/>
				<stop  offset="1" style="stop-color:#FE7062"/>
			</linearGradient>
			<path style="fill:url(#SVGID_00000065784938044429599270000008316048958558076800_);" d="M1170.39,1235.11
				c30.38-128.75-46.59-201.57-46.59-201.57c48.57-46.62,137.06-67.84,137.06-67.84s84.44,61.73,74.42,110.05
				c-5.87,28.32-59.35,169.64-59.35,169.64S1226.48,1268.8,1170.39,1235.11z"/>
			
				<linearGradient id="SVGID_00000163762269335417906330000010809270167457620100_" gradientUnits="userSpaceOnUse" x1="2076.6396" y1="748.5815" x2="1821.7709" y2="944.6344">
				<stop  offset="0" style="stop-color:#4F52FF"/>
				<stop  offset="1" style="stop-color:#4042E2"/>
			</linearGradient>
			<path style="fill:url(#SVGID_00000163762269335417906330000010809270167457620100_);" d="M1103.02,1298.85
				c12.37-37.25,67.37-63.74,67.37-63.74c56.09,33.69,105.54,10.28,105.54,10.28s11.09,42.39,3.44,81.79
				c-7.65,39.4-55.68,292.59-55.68,292.59c-75.67,15.33-192.06-15.43-192.06-15.43C1079.83,1518.77,1090.66,1336.11,1103.02,1298.85
				z"/>
			
				<linearGradient id="SVGID_00000132084400250851480220000014982845363018330787_" gradientUnits="userSpaceOnUse" x1="-2713.1899" y1="1110.0256" x2="-2694.6509" y2="974.3988" gradientTransform="matrix(-1 0 0 1 -1473.4333 0)">
				<stop  offset="0" style="stop-color:#FEBBBA"/>
				<stop  offset="1" style="stop-color:#FF928E"/>
			</linearGradient>
			<path style="fill:url(#SVGID_00000132084400250851480220000014982845363018330787_);" d="M1205.66,880.62l-24.7,110.96
				c-2.37,9.77,6.54,8.17,16.43,6.31c16.18-3.05,37.04-9.33,44.01-21.93c0.71-1.28,1.06-2.73,1.26-4.18l10.61-76.94
				c0.84-6.1-2.46-12.03-8.09-14.53l-20.48-9.08C1216.82,867.73,1207.69,872.23,1205.66,880.62z"/>
			
				<linearGradient id="SVGID_00000016762727575509620750000014501836294816253325_" gradientUnits="userSpaceOnUse" x1="856.0533" y1="1238.9124" x2="1274.6201" y2="1063.8099">
				<stop  offset="0" style="stop-color:#FEBBBA"/>
				<stop  offset="1" style="stop-color:#FF928E"/>
			</linearGradient>
			<path style="fill:url(#SVGID_00000016762727575509620750000014501836294816253325_);" d="M1123.8,1033.54
				c0,0-238.44,236.04,107.36,141.82c0,0,3.94-29.84-1.2-29.32c-112.14,11.19-159.04,36.86-67.88-51.53
				c3.22-3.13,2.23-14.92,0.15-18.9C1155.92,1063.47,1141.48,1039.4,1123.8,1033.54z"/>
			<g>
				
					<linearGradient id="SVGID_00000153701768871436871650000017579280408283859897_" gradientUnits="userSpaceOnUse" x1="-2815.5103" y1="553.1367" x2="-2653.7498" y2="265.2573" gradientTransform="matrix(-0.9809 -0.1943 -0.1943 0.9809 -1381.4921 -142.9339)">
					<stop  offset="0" style="stop-color:#FEBBBA"/>
					<stop  offset="1" style="stop-color:#FF928E"/>
				</linearGradient>
				<path style="fill:url(#SVGID_00000153701768871436871650000017579280408283859897_);" d="M1252.98,779.46
					c0,0,26.3,17.8,37.6,63.14s-7.06,61.6-25.89,60.6c-18.83-1-46.12-6.82-69.77-39.34
					C1171.27,831.34,1218.51,757.71,1252.98,779.46z"/>
				
					<linearGradient id="SVGID_00000094581022566635602050000001898187532409505977_" gradientUnits="userSpaceOnUse" x1="-2780.7222" y1="302.4396" x2="-2699.842" y2="505.3257" gradientTransform="matrix(-0.9809 -0.1943 -0.1943 0.9809 -1381.4921 -142.9339)">
					<stop  offset="0" style="stop-color:#09005D"/>
					<stop  offset="1" style="stop-color:#1A0F91"/>
				</linearGradient>
				<path style="fill:url(#SVGID_00000094581022566635602050000001898187532409505977_);" d="M1218.77,845.58
					c0,0-9.64-64.96,44.3-55.03l10.91,11.35c0,0,26.4-29.73-2.82-52.21s-69.76-16.72-92.19,24.2s-30.57,69.67-11.77,95.09
					c18.8,25.42,32.94,3.62,32.94,3.62s-8.62-22-1.47-31.45c7.15-9.44,16.38,5.49,16.38,5.49L1218.77,845.58z"/>
				
					<linearGradient id="SVGID_00000046311326731354788540000014774947627648978570_" gradientUnits="userSpaceOnUse" x1="-2781.0781" y1="572.4867" x2="-2619.3176" y2="284.6074" gradientTransform="matrix(-0.9809 -0.1943 -0.1943 0.9809 -1381.4921 -142.9339)">
					<stop  offset="0" style="stop-color:#FEBBBA"/>
					<stop  offset="1" style="stop-color:#FF928E"/>
				</linearGradient>
				<path style="fill:url(#SVGID_00000046311326731354788540000014774947627648978570_);" d="M1211.4,851.14
					c0,0-4.76-33.42-21.83-23.87c-17.07,9.55,6.15,31.22,15.46,38.59L1211.4,851.14z"/>
			</g>
			<g>
				
					<linearGradient id="SVGID_00000069393902299123055340000003288515632045970816_" gradientUnits="userSpaceOnUse" x1="-2972.5305" y1="396.1982" x2="-2823.1177" y2="736.1465" gradientTransform="matrix(-0.9776 -0.2106 -0.2106 0.9776 -1371.4062 -162.1075)">
					<stop  offset="0" style="stop-color:#FEBBBA"/>
					<stop  offset="1" style="stop-color:#FF928E"/>
				</linearGradient>
				<path style="fill:url(#SVGID_00000069393902299123055340000003288515632045970816_);" d="M1514.02,781.67
					c0.36,3.93-14.24,6.64-18.89-10.1c1.28-7.27,3.55-39.1,9.12-44.04c29.68-26.34,82.61-55.96,82.61-55.96
					c5.92,9.04-1.84,14.99-1.84,14.99l-26.42,17.83c2.76,9.13,6.78,17.2,7.23,27.62c0.34,7.89-2.57,15.62-7.81,21.6
					c-5.26,6.01-12.34,13.77-18.72,19.65C1527.22,784.42,1514.02,781.67,1514.02,781.67z"/>
				
					<linearGradient id="SVGID_00000083777823084140413440000010518659361869771649_" gradientUnits="userSpaceOnUse" x1="1511.1731" y1="741.5137" x2="1551.4059" y2="741.5137">
					<stop  offset="0" style="stop-color:#FF928E"/>
					<stop  offset="1" style="stop-color:#FE7062"/>
				</linearGradient>
				<path style="fill:url(#SVGID_00000083777823084140413440000010518659361869771649_);" d="M1528.37,768.7l-4.04-1.66
					c0.54-1.31,13.22-32.12,19.35-38.52c2.33-2.43,3.46-4.51,3.35-6.19c-0.05-0.91-0.5-1.81-1.36-2.72l-21.38,11.43l-9.44,14.78
					l-3.68-2.35l10.05-15.75l25.04-13.39l1.13,0.92c2.53,2.07,3.84,4.29,3.99,6.8c0.18,2.99-1.3,6.09-4.55,9.48
					C1542.22,736.36,1531.94,760,1528.37,768.7z"/>
			</g>
		</g>
		<g>
			<g>
				
					<linearGradient id="SVGID_00000093166165105410187750000012315271945245521032_" gradientUnits="userSpaceOnUse" x1="1416.4044" y1="1021.298" x2="1830.2531" y2="629.2314">
					<stop  offset="0" style="stop-color:#4F52FF"/>
					<stop  offset="1" style="stop-color:#4042E2"/>
				</linearGradient>
				<path style="fill:url(#SVGID_00000093166165105410187750000012315271945245521032_);" d="M1390.18,1044.22l-71.25-9.39
					c-8.5-1.41-17.26,3.57-22.51,12.78l-46.87,103.6c-8.82,15.48-2.55,36.01,11.73,38.38l57.21,7.34c5.47,0.91,11.1-2.55,14.19-8.71
					l63.39-126.52C1399.73,1054.39,1396.67,1045.3,1390.18,1044.22z"/>
			</g>
			
				<linearGradient id="SVGID_00000039855985097023820480000001643889666174385064_" gradientUnits="userSpaceOnUse" x1="1225.5951" y1="1141.1886" x2="1302.4745" y2="1141.1886">
				<stop  offset="0" style="stop-color:#FEBBBA"/>
				<stop  offset="1" style="stop-color:#FF928E"/>
			</linearGradient>
			<path style="fill:url(#SVGID_00000039855985097023820480000001643889666174385064_);" d="M1231.16,1175.36
				c0,0-8.04-33.05-4.8-44.78c3.24-11.73,9.52-26.8,30.47-23.45c20.94,3.35,45.64,12.17,45.64,12.17s-1.25,15.27-17.16,10.35
				l9.87,7.64c0,0-1.41,12.23-14.85,5.7l9.18,10.13c0,0-5.77,10.04-15.66,3.6C1263.95,1150.26,1259.21,1179.34,1231.16,1175.36z"/>
		</g>
	</g>
</g>
</svg>
