<svg width="476" height="474" viewBox="0 0 476 474" fill="none" xmlns="http://www.w3.org/2000/svg">
<path d="M422.988 18.1396L457.238 50.3297C461.617 54.7002 465.091 59.8925 467.459 65.6087C469.827 71.3249 471.043 77.4524 471.038 83.6396V421.53C471.038 434.024 466.074 446.007 457.24 454.841C448.405 463.676 436.422 468.64 423.928 468.64H86.0876C79.8998 468.649 73.7711 467.435 68.0544 465.066C62.3378 462.698 57.1459 459.222 52.7776 454.84L14.8477 418.65" fill="#C6C6C6"/>
<path d="M388.949 3.57031H51.0587C25.0516 3.57031 3.96875 24.6532 3.96875 50.6603V388.55C3.96875 414.557 25.0516 435.64 51.0587 435.64H388.949C414.956 435.64 436.039 414.557 436.039 388.55V50.6603C436.039 24.6532 414.956 3.57031 388.949 3.57031Z" fill="white"/>
<path d="M83.9578 186.63H39.2578V157.33H159.578V186.63H114.878V308.68H83.9578V186.63Z" fill="#448EF6"/>
<path d="M180.668 157.33H211.588V308.68H180.668V157.33Z" fill="#448EF6"/>
<path d="M373.459 277.17L386.829 289.51L371.169 308.68L356.549 295.24C343.568 305.642 327.433 311.317 310.799 311.33C269.649 311.33 234.559 275.42 234.559 232.9C234.559 190.38 269.649 154.69 310.799 154.69C352.369 154.69 387.039 190.38 387.039 232.9C387.022 248.68 382.293 264.096 373.459 277.17ZM333.779 274.53L317.089 259.11L332.749 239.94L350.089 255.8C353.702 248.707 355.564 240.851 355.519 232.89C355.519 206.67 335.049 184.2 310.819 184.2C286.819 184.2 266.329 206.67 266.329 232.89C266.329 259.33 286.799 281.8 310.819 281.8C319.033 281.77 327.043 279.233 333.779 274.53Z" fill="#448EF6"/>
<path d="M460.09 47.9701L460 47.89L425.09 14.99C425.039 14.9469 424.986 14.9068 424.93 14.87C420.2 10.149 414.586 6.40598 408.409 3.85458C402.232 1.30318 395.613 -0.00663044 388.93 2.52382e-05H51.09C37.5449 0.0159045 24.5592 5.40368 14.9814 14.9815C5.40365 24.5593 0.0158796 37.545 2.98583e-07 51.0901V388.98C-0.000773519 396.132 1.50255 403.203 4.41235 409.736C7.32215 416.269 11.5734 422.117 16.89 426.9C16.9713 427.005 17.0581 427.105 17.15 427.2L50.01 458.14C54.7433 462.889 60.3704 466.654 66.5665 469.216C72.7626 471.779 79.4049 473.089 86.11 473.07H423.96C437.51 473.054 450.501 467.664 460.083 458.083C469.664 448.501 475.054 435.51 475.07 421.96V84.1101C475.086 77.3949 473.771 70.7432 471.199 64.5399C468.628 58.3365 464.852 52.7046 460.09 47.9701ZM7.98999 388.97V51.0901C8.00323 39.6642 12.5487 28.7103 20.6289 20.6319C28.7091 12.5536 39.6641 8.01061 51.09 8.00002H388.98C400.408 8.00796 411.365 12.5497 419.448 20.6284C427.53 28.707 432.077 39.6625 432.09 51.0901V388.98C432.077 400.404 427.533 411.357 419.455 419.435C411.377 427.513 400.424 432.057 389 432.07H51.09C39.6606 432.065 28.7005 427.524 20.616 419.445C12.5314 411.366 7.98322 400.409 7.96997 388.98L7.98999 388.97ZM467.06 421.97C467.047 433.399 462.501 444.357 454.419 452.439C446.337 460.521 435.379 465.067 423.95 465.08H86.09C80.4253 465.094 74.814 463.985 69.5806 461.817C64.3471 459.649 59.5954 456.466 55.6 452.45L55.52 452.37L41.52 439.17C44.6744 439.773 47.8785 440.078 51.09 440.08H388.98C402.53 440.069 415.523 434.683 425.105 425.102C434.687 415.522 440.077 402.53 440.09 388.98V51.0901C440.092 46.8852 439.571 42.6965 438.54 38.62L454.54 53.6701C458.537 57.6645 461.704 62.4108 463.858 67.6353C466.012 72.8598 467.111 78.459 467.09 84.1101L467.06 421.97Z" fill="#575756"/>
</svg>
